<?xml version="1.0" standalone="no"?>
<!DOCTYPE svg PUBLIC "-//W3C//DTD SVG 20010904//EN"
 "http://www.w3.org/TR/2001/REC-SVG-20010904/DTD/svg10.dtd">
<svg version="1.0" xmlns="http://www.w3.org/2000/svg"
 width="1024.000000pt" height="1024.000000pt" viewBox="0 0 1024.000000 1024.000000"
 preserveAspectRatio="xMidYMid meet">

<g transform="translate(0.000000,1024.000000) scale(0.100000,-0.100000)"
fill="#FFFFFF" stroke="none">
<path d="M5368 9103 c7 -3 16 -2 19 1 4 3 -2 6 -13 5 -11 0 -14 -3 -6 -6z"/>
<path d="M4960 8923 c-819 -45 -1650 -374 -2255 -894 -561 -481 -997 -1145
-1198 -1824 -118 -397 -175 -801 -164 -1165 17 -573 149 -1112 397 -1615 312
-636 801 -1179 1385 -1540 669 -414 1457 -620 2202 -576 275 16 463 44 718
107 544 135 1098 414 1525 769 675 562 1144 1359 1309 2225 49 260 65 433 65
715 0 346 -27 557 -115 910 -143 569 -426 1112 -806 1545 -290 331 -603 593
-966 811 -636 382 -1382 571 -2097 532z m370 -193 c470 -30 887 -133 1290
-321 901 -420 1619 -1210 1934 -2127 217 -635 257 -1195 131 -1848 -70 -361
-175 -662 -344 -989 -308 -593 -766 -1086 -1321 -1419 -483 -291 -979 -457
-1541 -517 -162 -18 -554 -15 -715 5 -483 59 -956 206 -1334 416 -365 202
-553 341 -820 609 -636 638 -999 1431 -1070 2340 -50 649 117 1389 445 1966
283 499 658 924 1080 1222 567 401 1243 636 1915 666 149 7 193 6 350 -3z"/>
<path d="M4865 8529 c-555 -55 -1009 -204 -1469 -482 -395 -238 -726 -546
-1008 -940 -92 -128 -242 -374 -301 -492 -249 -500 -381 -1135 -347 -1664 53
-823 343 -1524 886 -2141 531 -604 1298 -1000 2125 -1097 178 -21 573 -23 739
-4 1067 121 1972 689 2539 1594 308 492 481 1042 521 1658 37 576 -127 1265
-431 1802 -184 325 -454 665 -700 883 -598 529 -1258 819 -2014 884 -137 11
-422 11 -540 -1z m338 -280 c44 -12 102 -59 124 -103 37 -72 9 -199 -54 -244
-166 -118 -385 50 -308 235 22 52 42 72 100 99 55 26 82 29 138 13z m-417
-303 c25 -26 34 -63 23 -96 -12 -33 -31 -41 -159 -60 -326 -51 -718 -213
-1030 -427 -335 -230 -605 -515 -794 -836 -55 -94 -79 -117 -121 -117 -24 0
-75 51 -75 74 0 24 83 168 159 276 407 578 1038 1006 1706 1155 218 48 268 54
291 31z m930 -17 c56 -11 153 -34 215 -53 622 -184 1148 -553 1538 -1079 79
-107 191 -290 191 -312 0 -46 -86 -91 -121 -62 -9 7 -48 63 -87 124 -111 177
-215 306 -377 469 -167 168 -267 251 -430 359 -324 215 -673 358 -1029 420
-49 8 -98 23 -108 32 -23 20 -24 75 -2 109 19 28 23 28 210 -7z m-2768 -2029
c58 -63 197 -218 311 -344 351 -391 442 -491 452 -494 5 -2 9 182 9 462 l0
466 165 0 165 0 0 -905 c0 -529 -4 -905 -9 -905 -13 0 -94 86 -366 390 -131
146 -289 321 -351 390 -61 69 -132 148 -155 177 l-44 52 -5 -482 -5 -482 -150
1 -150 0 -3 898 c-2 841 -1 897 15 894 9 -2 64 -55 121 -118z m2315 94 c148
-32 312 -139 386 -251 17 -25 31 -50 31 -55 0 -4 -63 -39 -139 -78 -127 -63
-140 -68 -146 -51 -11 35 -86 103 -141 128 -104 48 -249 29 -333 -43 -94 -81
-104 -139 -99 -575 5 -376 8 -396 77 -467 109 -112 307 -122 414 -22 l42 39 3
140 4 141 -136 0 -136 0 0 155 0 155 311 0 310 0 -3 -322 -3 -323 -28 -50
c-78 -141 -226 -246 -402 -286 -71 -16 -239 -13 -310 6 -247 65 -434 264 -481
514 -23 124 -16 721 10 801 65 198 193 342 368 411 124 49 273 61 401 33z
m1250 -346 c107 -189 227 -402 268 -475 41 -73 77 -129 80 -125 6 6 210 371
435 779 l89 163 112 0 111 0 7 -72 c7 -83 3 -1674 -5 -1681 -3 -3 -70 -7 -150
-8 l-145 -4 0 433 c0 237 -3 432 -6 432 -9 0 -86 -138 -245 -435 -70 -132
-144 -269 -165 -304 l-37 -64 -16 27 c-9 14 -22 36 -30 49 -7 12 -71 126 -141
252 -70 127 -159 287 -199 357 l-71 127 -5 -437 -5 -437 -150 0 -150 0 -3 883
-2 882 114 0 114 0 195 -342z m-4290 -349 c87 -24 155 -123 142 -207 -18 -119
-140 -192 -259 -152 -44 14 -103 81 -117 133 -25 93 41 205 133 225 58 13 58
13 101 1z m6031 -17 c104 -61 129 -205 50 -292 -43 -47 -89 -64 -159 -58 -156
13 -223 213 -107 321 60 57 148 69 216 29z m-5499 -1476 c13 -13 33 -43 45
-67 30 -59 129 -205 208 -309 80 -104 338 -362 447 -447 375 -293 796 -484
1219 -553 124 -20 139 -31 134 -94 -2 -28 -10 -44 -28 -57 -24 -18 -29 -18
-136 1 -574 99 -1113 384 -1539 814 -150 152 -276 308 -377 468 -95 150 -112
189 -97 221 22 49 86 61 124 23z m4861 8 c66 -31 60 -65 -44 -232 -404 -650
-1109 -1136 -1870 -1287 -69 -14 -138 -25 -153 -25 -34 0 -59 32 -59 75 0 50
22 71 82 79 153 20 461 114 662 202 121 53 304 155 437 245 308 207 661 583
814 867 28 51 66 92 87 92 6 0 25 -7 44 -16z m-2380 -1481 c63 -32 97 -84 102
-152 6 -77 -10 -122 -58 -164 -54 -50 -132 -67 -194 -43 -62 24 -91 49 -115
99 -24 49 -26 105 -7 160 19 52 42 75 101 104 58 28 112 27 171 -4z"/>
<path d="M7965 7910 c10 -11 20 -20 23 -20 3 0 -3 9 -13 20 -10 11 -20 20 -23
20 -3 0 3 -9 13 -20z"/>
<path d="M2239 7843 c-13 -16 -12 -17 4 -4 16 13 21 21 13 21 -2 0 -10 -8 -17
-17z"/>
<path d="M8090 7776 c0 -2 8 -10 18 -17 15 -13 16 -12 3 4 -13 16 -21 21 -21
13z"/>
<path d="M1161 5314 c0 -11 3 -14 6 -6 3 7 2 16 -1 19 -3 4 -6 -2 -5 -13z"/>
<path d="M9122 5300 c0 -14 2 -19 5 -12 2 6 2 18 0 25 -3 6 -5 1 -5 -13z"/>
<path d="M1161 4934 c0 -11 3 -14 6 -6 3 7 2 16 -1 19 -3 4 -6 -2 -5 -13z"/>
<path d="M9121 4924 c0 -11 3 -14 6 -6 3 7 2 16 -1 19 -3 4 -6 -2 -5 -13z"/>
<path d="M2440 2176 c0 -2 8 -10 18 -17 15 -13 16 -12 3 4 -13 16 -21 21 -21
13z"/>
</g>
</svg>
